<?xml version="1.0" encoding="utf-8"?>
<!-- Generator: Adobe Illustrator 25.2.0, SVG Export Plug-In . SVG Version: 6.00 Build 0)  -->
<svg version="1.1" id="Layer_1" xmlns="http://www.w3.org/2000/svg" xmlns:xlink="http://www.w3.org/1999/xlink" x="0px" y="0px"
	 viewBox="0 0 277.7 379.6" style="enable-background:new 0 0 277.7 379.6;" xml:space="preserve">
<style type="text/css">
	.st0{fill:#00CC66;}
</style>
<g>
	<path class="st0" d="M261.8,234.3c-6.5-4.9-10.2-12.5-10.2-20.6v-45.4c0.1-8.3,4.1-16,10.8-20.9c17.3-13.4,20.5-38.3,7.1-55.6
		c-13.4-17.3-38.3-20.5-55.6-7.1c-17.3,13.4-20.5,38.3-7.1,55.6c2.2,2.8,4.8,5.4,7.7,7.5c6.4,4.9,10.2,12.5,10.2,20.5v45.5
		c-0.1,8.3-4.1,16-10.8,20.9c-17.3,13.4-20.5,38.3-7.1,55.6c13.4,17.3,38.3,20.5,55.6,7.1c17.3-13.4,20.5-38.3,7.1-55.6
		C267.2,239,264.6,236.5,261.8,234.3z"/>
	<path class="st0" d="M63.4,234.3h-0.1c-6.5-4.9-10.2-12.5-10.2-20.6v-45.4c0.1-8.3,4.1-16,10.8-20.9c17.3-13.3,20.6-38.2,7.2-55.6
		c-13.3-17.3-38.2-20.6-55.6-7.2s-20.6,38.2-7.2,55.6c2.2,2.9,4.9,5.5,7.8,7.7c6.4,4.9,10.2,12.5,10.2,20.5v45.5
		c-0.1,8.3-4.1,16-10.8,20.9C-1.8,248.1-5,273,8.4,290.3c13.4,17.3,38.3,20.5,55.6,7.1c17.3-13.4,20.5-38.3,7.1-55.6
		C68.8,239,66.3,236.5,63.4,234.3z"/>
	<path class="st0" d="M163.6,71c17.3-13.4,20.5-38.3,7.1-55.6c-13.4-17.3-38.3-20.5-55.6-7.1C97.8,21.7,94.6,46.6,108,63.9
		c2.2,2.8,4.8,5.4,7.7,7.5c6.4,4.9,10.2,12.5,10.2,20.5v45.5c-0.1,8.3-4.1,16-10.8,20.9c-9.7,7.5-15.4,19.1-15.4,31.3
		c0,0,0,0.2,0,0.4c0,0.1,0,0.4,0,0.6c0,0.9,0,1.9,0.2,2.8c0.2,1,0.3,2.4,0.5,3.6c0,0.2,0,0.5,0,0.7c0,0,0,0.1,0,0.2
		c1.9,9.5,7.3,17.9,15.1,23.7c6.4,4.9,10.2,12.5,10.2,20.5v45.5c-0.1,8.3-4.1,16-10.8,20.9c-17.3,13.4-20.5,38.3-7.1,55.6
		c13.4,17.3,38.3,20.5,55.6,7.1c17.3-13.4,20.5-38.3,7.1-55.6c-2.2-2.8-4.8-5.4-7.6-7.5c-6.5-4.9-10.2-12.5-10.2-20.6v-45.4
		c0.1-8.3,4.1-16,10.8-20.9c9.7-7.5,15.4-19.1,15.4-31.3c0,0,0-0.2,0-0.4c0-0.1-0.1-0.4-0.1-0.6c0-0.9,0-1.9-0.2-2.8
		c-0.1-1.2-0.3-2.4-0.5-3.6c0-0.2,0-0.5,0-0.7c0,0,0-0.1,0-0.2c-1.9-9.5-7.2-18-14.9-23.9c-6.5-4.9-10.2-12.5-10.2-20.6V91.9
		C153,83.6,157,75.9,163.6,71z"/>
</g>
</svg>
