<?xml version="1.0" encoding="utf-8"?>
<!-- Generator: Adobe Illustrator 25.2.0, SVG Export Plug-In . SVG Version: 6.00 Build 0)  -->
<svg version="1.1" id="Layer_1" xmlns="http://www.w3.org/2000/svg" xmlns:xlink="http://www.w3.org/1999/xlink" x="0px" y="0px"
	 viewBox="0 0 513.7 127.1" style="enable-background:new 0 0 513.7 127.1;" xml:space="preserve">
<style type="text/css">
	.st0{fill:#FFFFFF;}
	.st1{fill:#00CC66;}
</style>
<g>
	<g>
		<path class="st0" d="M133.6,50.6c1.6-1.6,3.5-2.9,5.7-3.7c2.3-0.9,4.7-1.3,7.2-1.3c2.6,0,5.3,0.5,7.7,1.6c2.5,1.2,4.6,2.9,6.4,4.9
			l8.3-7.7c-2.6-3.2-6-5.8-9.9-7.4c-4.2-1.7-8.6-2.6-13.2-2.5c-4.1,0-8.1,0.7-12,2.2c-3.6,1.3-6.8,3.4-9.6,6
			c-2.7,2.6-4.9,5.7-6.4,9.2c-3,7.4-3,15.8,0,23.2c1.5,3.5,3.6,6.6,6.3,9.2c2.8,2.6,6,4.7,9.6,6c3.8,1.4,7.9,2.2,12,2.1
			c4.5,0.1,9-0.8,13.2-2.6c3.8-1.6,7.2-4.2,9.9-7.4l-8.3-7.7c-1.7,2.1-3.9,3.8-6.4,5c-2.4,1.1-5,1.7-7.7,1.6c-2.5,0-4.9-0.4-7.2-1.3
			c-2.1-0.8-4.1-2.1-5.7-3.7c-1.6-1.6-2.9-3.6-3.7-5.7c-1.8-4.7-1.8-9.9,0-14.5C130.7,54.2,132,52.2,133.6,50.6z"/>
		<path class="st0" d="M199.5,77.9l-12.1-29.3h-12.9L193.2,92l-0.2,0.4c-0.6,1.6-1.6,3-2.8,4.1c-1.2,0.9-2.7,1.3-4.2,1.2
			c-1.3,0-2.5-0.3-3.7-0.7c-1.2-0.5-2.3-1.1-3.3-2l-4.6,8.9c1.6,1.3,3.4,2.3,5.4,2.9c2.1,0.7,4.4,1,6.6,1c2.5,0,4.9-0.3,7.2-1.2
			c2.3-0.9,4.3-2.3,5.9-4.2c2.1-2.4,3.7-5.2,4.8-8.1l19.4-45.6h-12L199.5,77.9z"/>
		<path class="st0" d="M265.8,50.6c-3.3-1.8-7.1-2.8-10.9-2.7c-3.3-0.1-6.6,0.8-9.5,2.4c-1.3,0.8-2.4,1.8-3.5,2.9V32.3h-12.5v59.3
			l11.9,0v-5c1.1,1.3,2.3,2.4,3.8,3.2c3,1.7,6.3,2.5,9.7,2.4c3.8,0.1,7.6-0.9,10.9-2.8c3.2-1.8,5.9-4.5,7.7-7.7
			c3.8-7.3,3.8-16.1,0-23.4C271.7,55.1,269,52.4,265.8,50.6z M262.3,76.4c-1.8,3.5-5.5,5.7-9.5,5.6c-2,0-3.9-0.5-5.6-1.4
			c-1.7-1-3-2.4-3.9-4.1c-1.9-4-1.9-8.7,0-12.7c0.9-1.7,2.3-3.1,3.9-4.1c1.7-1,3.6-1.5,5.6-1.4c3.9-0.1,7.6,2,9.5,5.5
			C264.3,67.7,264.3,72.4,262.3,76.4z"/>
		<path class="st0" d="M296,54.2v-5.6h-11.9v43l12.5,0V71.3c0-4.1,1-7.1,3.2-9.1c2.3-2,5.2-3.1,8.3-2.9c0.5,0,0.9,0,1.4,0l1.4,0.1
			V47.9c-3.6-0.1-7.1,0.7-10.3,2.4C298.7,51.3,297.2,52.6,296,54.2z"/>
		<path class="st0" d="M352.3,52.6c-3.6-3.1-8.7-4.6-15.3-4.6c-3.4,0-6.8,0.5-10.1,1.4c-3,0.8-5.9,2.1-8.5,3.8l4.5,8.7
			c1.7-1.3,3.6-2.3,5.6-2.9c2.2-0.7,4.5-1.1,6.8-1.1c3.4,0,5.8,0.7,7.5,2.2c1.7,1.6,2.6,3.9,2.4,6.2h-9.8c-3.6-0.1-7.2,0.4-10.6,1.6
			c-2.4,0.8-4.5,2.4-6,4.5c-2.5,4.1-2.5,9.3,0,13.3c1.4,2,3.3,3.7,5.5,4.7c2.7,1.2,5.7,1.8,8.6,1.7c3.2,0.1,6.4-0.6,9.3-2.2
			c1.6-0.9,2.9-2.2,3.8-3.8v5.3v0h11.7V67C357.7,60.5,355.9,55.7,352.3,52.6z M341.7,82.3c-1.7,1-3.6,1.5-5.6,1.5
			c-1.8,0.1-3.6-0.4-5.2-1.4c-1.2-0.9-1.9-2.3-1.9-3.8c0-1.4,0.6-2.7,1.6-3.6c1.1-1,3.1-1.4,6-1.4h8.5v4.5
			C344.6,79.9,343.4,81.4,341.7,82.3z"/>
		<path class="st0" d="M402.4,49.9c-2.8-1.4-6-2.1-9.2-2c-3.4,0-6.8,0.8-9.8,2.4c-1.7,0.9-3.2,2.1-4.4,3.5v-5.2h-11.9v43h12.5V70.3
			c-0.1-2.3,0.4-4.5,1.3-6.5c0.8-1.6,2.1-3,3.7-3.8c1.6-0.8,3.5-1.3,5.3-1.2c2.4-0.1,4.7,0.8,6.4,2.5c1.5,1.7,2.3,4.2,2.3,7.7v22.7
			h12.5V66.9c0.2-3.7-0.6-7.4-2.3-10.8C407.3,53.5,405.1,51.3,402.4,49.9z"/>
		<path class="st0" d="M510.7,58.3c-1.9-3.3-4.7-5.9-8-7.7c-7.3-3.6-15.9-3.6-23.1,0.2c-3.4,1.8-6.2,4.5-8.2,7.8
			c-2,3.5-3.1,7.4-3,11.5c-0.1,4,1,7.9,3,11.4c2.1,3.4,5,6.1,8.6,7.9c4,2,8.4,3,12.9,2.9c3.5,0.1,7-0.5,10.3-1.7
			c2.8-1.1,5.4-2.9,7.4-5.2l-6.6-7.2c-1.4,1.3-3,2.4-4.8,3.1c-1.9,0.7-4,1-6,1c-2.3,0.1-4.6-0.4-6.7-1.4c-1.8-0.9-3.4-2.3-4.4-4.1
			c-0.6-1-1-2.1-1.2-3.2h32.6c0-0.5,0.1-1.1,0.2-1.7s0.1-1.2,0.1-1.6C513.8,66,512.7,61.9,510.7,58.3z M485.7,58.8
			c1.7-1,3.7-1.4,5.6-1.4c2,0,3.9,0.4,5.6,1.4c1.6,0.9,2.9,2.3,3.8,3.9c0.6,1.2,1,2.4,1.2,3.7h-21.2c0.2-1.3,0.6-2.5,1.2-3.6
			C482.7,61,484,59.7,485.7,58.8z"/>
		<path class="st0" d="M448.5,75.5c-0.1,0.3-0.3,0.7-0.5,1c-0.9,1.7-2.3,3.1-4,4.1c-1.8,1-3.7,1.5-5.8,1.4c-1.9,0-3.8-0.5-5.5-1.4
			c-1.8-1.1-3.3-2.6-4.2-4.5l-9.7,5.3c1.6,3.4,4.2,6.2,7.4,8c3.6,2,7.7,2.9,11.8,2.8c4.3,0.1,8.6-0.9,12.4-2.8
			c3.5-1.8,6.5-4.5,8.5-7.9c1.1-1.9,1.9-3.9,2.4-6L448.5,75.5L448.5,75.5z"/>
		<path class="st0" d="M432.8,59.6c1.7-1,3.6-1.5,5.5-1.4c2,0,4,0.5,5.8,1.4c1.7,1,3.1,2.4,4,4.1c0.2,0.3,0.3,0.6,0.5,1h13
			c-0.5-2.1-1.3-4.1-2.4-6c-2.1-3.3-5-6.1-8.5-7.8c-3.8-2-8.1-3-12.4-2.9c-4.1-0.1-8.2,0.9-11.8,2.8c-3.3,1.8-5.9,4.7-7.4,8.2
			l9.7,5.2C429.5,62.2,431,60.7,432.8,59.6z"/>
	</g>
	<path class="st1" d="M87.6,78.5c-2.2-1.6-3.4-4.2-3.4-6.9V56.4c0-2.8,1.4-5.4,3.6-7c5.8-4.5,6.9-12.8,2.4-18.6
		c-4.5-5.8-12.8-6.9-18.6-2.4c-5.8,4.5-6.9,12.8-2.4,18.6c0.7,1,1.6,1.8,2.6,2.5c2.2,1.6,3.4,4.2,3.4,6.9v15.2c0,2.8-1.4,5.4-3.6,7
		c-5.8,4.5-6.9,12.8-2.4,18.6c4.5,5.8,12.8,6.9,18.6,2.4c5.8-4.5,6.9-12.8,2.4-18.6C89.5,80,88.6,79.2,87.6,78.5z"/>
	<path class="st1" d="M21.2,78.5c-2.2-1.6-3.4-4.2-3.4-6.9V56.4c0-2.8,1.4-5.4,3.6-7c5.8-4.5,6.9-12.8,2.4-18.6
		c-4.5-5.8-12.8-6.9-18.6-2.4c-5.8,4.5-6.9,12.8-2.4,18.6c0.7,1,1.6,1.8,2.6,2.6c2.2,1.6,3.4,4.2,3.4,6.9v15.2c0,2.8-1.4,5.4-3.6,7
		c-5.8,4.5-6.9,12.8-2.4,18.6c4.5,5.8,12.8,6.9,18.6,2.4c5.8-4.5,6.9-12.8,2.4-18.6C23.1,80,22.2,79.2,21.2,78.5L21.2,78.5z"/>
	<path class="st1" d="M59.8,63.3c0-0.3,0-0.6-0.1-0.9s-0.1-0.8-0.2-1.2c0-0.1,0-0.2,0-0.2c0,0,0,0,0-0.1c-0.6-3.2-2.4-6-5-8
		c-2.2-1.6-3.4-4.2-3.4-6.9V30.8c0-2.8,1.4-5.4,3.6-7c5.8-4.5,6.9-12.8,2.4-18.6c-4.5-5.8-12.8-6.9-18.6-2.4
		c-5.8,4.5-6.9,12.8-2.4,18.6c0.7,1,1.6,1.8,2.6,2.5c2.2,1.6,3.4,4.2,3.4,6.9V46c0,2.8-1.4,5.4-3.6,7c-3.2,2.5-5.1,6.4-5.1,10.5
		c0,0,0,0.1,0,0.1s0,0.1,0,0.2c0,0.3,0,0.6,0.1,0.9s0.1,0.8,0.2,1.2c0,0.1,0,0.2,0,0.2c0,0,0,0,0,0.1c0.6,3.2,2.4,6,5,8
		c2.2,1.6,3.4,4.2,3.4,6.9v15.2c0,2.8-1.4,5.4-3.6,7c-5.8,4.5-6.9,12.8-2.4,18.6c4.5,5.8,12.8,6.9,18.6,2.4
		c5.8-4.5,6.9-12.8,2.4-18.6c-0.7-0.9-1.6-1.8-2.6-2.5c-2.2-1.6-3.4-4.2-3.4-6.9V81.1c0-2.8,1.4-5.4,3.6-7c3.3-2.5,5.2-6.4,5.1-10.5
		c0,0,0-0.1,0-0.1S59.8,63.3,59.8,63.3z"/>
</g>
</svg>
