<?xml version="1.0" encoding="UTF-8"?>
<svg id="Layer_1" data-name="Layer 1" xmlns="http://www.w3.org/2000/svg" viewBox="0 0 1839.73 587.83">
  <defs>
    <style>
      .cls-1 {
        fill: #fff;
      }

      .cls-2 {
        fill: #0c6;
      }
    </style>
  </defs>
  <g>
    <path class="cls-2" d="M405.37,362.89c-10.01-7.53-15.87-19.34-15.82-31.87v-70.35c.23-12.79,6.38-24.75,16.65-32.38,26.82-20.73,31.75-59.28,11.01-86.1-20.73-26.82-59.28-31.75-86.1-11.01-26.82,20.73-31.75,59.28-11.01,86.1,3.41,4.41,7.4,8.33,11.86,11.66,9.97,7.51,15.82,19.29,15.77,31.78v70.4c-.23,12.79-6.38,24.75-16.65,32.38-26.82,20.73-31.76,59.28-11.02,86.1,20.73,26.82,59.28,31.76,86.1,11.02,26.82-20.73,31.76-59.28,11.02-86.1-3.39-4.39-7.37-8.3-11.82-11.63Z"/>
    <path class="cls-2" d="M98.21,362.89h-.23c-10.01-7.53-15.87-19.34-15.82-31.87v-70.35c.23-12.79,6.38-24.75,16.65-32.38,26.86-20.67,31.88-59.21,11.21-86.07-20.67-26.86-59.21-31.88-86.07-11.21-26.86,20.67-31.88,59.21-11.21,86.07,3.46,4.49,7.52,8.48,12.07,11.86,9.97,7.51,15.82,19.29,15.77,31.78v70.4c-.23,12.79-6.38,24.75-16.65,32.38-26.82,20.73-31.76,59.28-11.02,86.1,20.73,26.82,59.28,31.76,86.1,11.02,26.82-20.73,31.76-59.28,11.02-86.1-3.39-4.39-7.37-8.3-11.82-11.63Z"/>
    <path class="cls-2" d="M253.38,109.93c26.82-20.73,31.75-59.28,11.01-86.1-20.73-26.82-59.28-31.75-86.1-11.01-26.82,20.73-31.75,59.28-11.01,86.1,3.41,4.41,7.4,8.33,11.86,11.66,9.97,7.51,15.82,19.29,15.77,31.78v70.4c-.23,12.79-6.38,24.75-16.65,32.38-15.02,11.61-23.8,29.53-23.77,48.52v1.53c0,1.43,0,2.87.28,4.35s.42,3.75.74,5.6c-.02.37-.02.74,0,1.11v.37c2.96,14.67,11.18,27.75,23.13,36.77,9.97,7.51,15.82,19.29,15.77,31.78v70.4c-.23,12.79-6.38,24.75-16.65,32.38-26.81,20.75-31.72,59.3-10.97,86.1,20.75,26.81,59.3,31.72,86.1,10.97,26.81-20.75,31.72-59.3,10.97-86.1-3.4-4.39-7.37-8.3-11.82-11.62-10.01-7.53-15.87-19.34-15.82-31.87v-70.35c.23-12.79,6.38-24.75,16.65-32.38,15.03-11.6,23.83-29.53,23.82-48.52v-1.48c0-1.43,0-2.87-.28-4.35s-.42-3.75-.74-5.6c.02-.35.02-.71,0-1.06v-.37c-2.96-14.67-11.19-27.75-23.13-36.77-10.01-7.53-15.87-19.34-15.82-31.87v-70.35c.23-12.79,6.38-24.75,16.65-32.38Z"/>
  </g>
  <g>
    <path class="cls-1" d="M612.09,228.96c7.97-7.97,17.4-14.08,28.3-18.34,10.89-4.25,22.85-6.38,35.88-6.38,13.82,0,26.57,2.73,38.27,8.17,11.69,5.45,22.32,13.62,31.89,24.52l41.46-38.27c-13.29-16.21-29.7-28.5-49.24-36.87-19.53-8.37-41.4-12.56-65.58-12.56-21.79,0-41.86,3.53-60.2,10.56-18.34,7.04-34.35,17.08-48.04,30.1-13.69,13.02-24.32,28.3-31.89,45.84-7.57,17.54-11.36,36.81-11.36,57.81s3.79,40.26,11.36,57.8c7.57,17.54,18.14,32.83,31.69,45.84,13.55,13.03,29.56,23.06,48.04,30.1,18.47,7.04,38.47,10.56,60,10.56,24.45,0,46.44-4.25,65.98-12.76,19.53-8.5,35.94-20.86,49.24-37.08l-41.46-38.27c-9.57,11.16-20.2,19.47-31.89,24.92-11.7,5.45-24.45,8.17-38.27,8.17-13.02,0-24.98-2.12-35.88-6.38-10.9-4.25-20.33-10.36-28.3-18.34-7.97-7.97-14.15-17.4-18.54-28.3-4.39-10.89-6.58-22.98-6.58-36.28s2.19-25.38,6.58-36.28c4.38-10.89,10.56-20.33,18.54-28.3Z"/>
    <path class="cls-1" d="M939,364.26l-60.2-145.66h-64.18l92.85,216.26-.76,1.8c-4.26,9.57-8.97,16.41-14.15,20.53-5.18,4.12-12.16,6.18-20.93,6.18-6.12,0-12.3-1.2-18.54-3.59-6.25-2.39-11.76-5.72-16.54-9.97l-22.72,44.25c6.91,6.11,15.81,10.89,26.71,14.35,10.89,3.45,21.93,5.18,33.09,5.18,13.02,0,24.92-1.99,35.68-5.98,10.77-3.99,20.59-10.9,29.5-20.73,8.9-9.84,16.81-23.39,23.72-40.66l96.87-227.63h-59.8l-60.59,145.66Z"/>
    <path class="cls-1" d="M1204.48,386.83c-8.24,0-14.75-2.45-19.53-7.37-4.78-4.91-7.18-11.89-7.18-20.93v-92.09h53.42v-47.84h-53.42v-47.44h-62.19v47.44h-33.09v47.84h33.09v92.89c0,25.51,7.04,44.72,21.13,57.6,14.08,12.89,33.75,19.33,59,19.33,9.57,0,18.8-1.13,27.71-3.39,8.9-2.25,16.54-5.64,22.92-10.17l-16.74-43.85c-6.92,5.32-15.29,7.97-25.12,7.97Z"/>
    <path class="cls-1" d="M1363.94,246.78v-28.18h-59.4v214.47h62.19v-101.26c0-20.46,5.24-35.54,15.75-45.25,10.5-9.7,24.25-14.55,41.26-14.55,2.39,0,4.65.07,6.78.2,2.12.14,4.52.34,7.18.6v-57.41c-20.2,0-37.34,3.92-51.43,11.76-9.03,5.03-16.46,11.58-22.32,19.61Z"/>
    <rect class="cls-1" x="1499.48" y="218.6" width="62.19" height="214.47"/>
    <path class="cls-1" d="M1558.48,128.7c-7.18-6.24-16.48-9.37-27.91-9.37s-20.73,3.33-27.91,9.96c-7.18,6.65-10.76,14.89-10.76,24.72s3.59,18.08,10.76,24.72c7.18,6.65,16.47,9.97,27.91,9.97s21.06-3.39,28.1-10.17c7.04-6.78,10.56-15.35,10.56-25.71,0-9.83-3.59-17.87-10.76-24.12Z"/>
    <path class="cls-1" d="M1695.82,273.61c8.37-4.78,17.48-7.18,27.31-7.18,10.63,0,20.2,2.39,28.7,7.18,8.51,4.78,15.22,11.56,20.13,20.33.7,1.24,1.33,2.53,1.93,3.85h65.15c-2.54-10.43-6.53-20.17-12.07-29.16-10.23-16.61-24.38-29.63-42.46-39.07-18.07-9.43-38.67-14.15-61.79-14.15s-42.26,4.72-59,14.15c-16.74,9.44-29.1,22.92-37.07,40.46l48.24,25.91c5.58-10.1,12.56-17.54,20.93-22.33Z"/>
    <path class="cls-1" d="M1775.23,350.69c-.93,2.47-2.02,4.82-3.27,7.04-4.91,8.77-11.62,15.55-20.13,20.33-8.5,4.78-18.07,7.18-28.7,7.18-9.83,0-18.94-2.32-27.31-6.97-8.37-4.65-15.35-12.16-20.93-22.52l-48.24,26.31c7.97,17.28,20.33,30.63,37.07,40.07,16.74,9.44,36.41,14.15,59,14.15s43.72-4.71,61.79-14.15c18.08-9.43,32.23-22.53,42.46-39.27,6.06-9.92,10.28-20.65,12.75-32.16h-64.5Z"/>
  </g>
</svg>