<?xml version="1.0" encoding="UTF-8"?>
<svg id="Layer_1" data-name="Layer 1" xmlns="http://www.w3.org/2000/svg" viewBox="0 0 1732.88 553.69">
  <defs>
    <style>
      .cls-1 {
        fill: #0c6;
      }
    </style>
  </defs>
  <g>
    <path class="cls-1" d="M381.82,341.81c-9.42-7.09-14.95-18.22-14.9-30.02v-66.26c.22-12.05,6.01-23.31,15.68-30.5,25.26-19.53,29.9-55.84,10.37-81.1-19.53-25.26-55.84-29.9-81.1-10.37-25.26,19.53-29.9,55.84-10.37,81.1,3.21,4.15,6.97,7.84,11.17,10.98,9.39,7.08,14.9,18.17,14.86,29.93v66.31c-.22,12.05-6.01,23.31-15.68,30.5-25.26,19.53-29.91,55.83-10.38,81.1,19.53,25.26,55.83,29.91,81.1,10.38,25.26-19.53,29.91-55.83,10.38-81.1-3.2-4.14-6.94-7.82-11.13-10.95Z"/>
    <path class="cls-1" d="M92.5,341.81h-.22c-9.42-7.09-14.95-18.22-14.9-30.02v-66.26c.22-12.05,6.01-23.31,15.68-30.5,25.3-19.47,30.03-55.77,10.56-81.07-19.47-25.3-55.77-30.03-81.07-10.56-25.3,19.47-30.03,55.77-10.56,81.07,3.26,4.23,7.08,7.99,11.37,11.17,9.39,7.08,14.9,18.17,14.86,29.93v66.31c-.22,12.05-6.01,23.31-15.68,30.5-25.26,19.53-29.91,55.83-10.38,81.1,19.53,25.26,55.83,29.91,81.1,10.38,25.26-19.53,29.91-55.83,10.38-81.1-3.2-4.14-6.94-7.82-11.13-10.95Z"/>
    <path class="cls-1" d="M238.67,103.55c25.26-19.53,29.9-55.84,10.37-81.1-19.53-25.26-55.84-29.9-81.1-10.37-25.26,19.53-29.9,55.84-10.37,81.1,3.21,4.15,6.97,7.84,11.17,10.98,9.39,7.08,14.9,18.17,14.86,29.93v66.31c-.22,12.05-6.01,23.31-15.68,30.5-14.14,10.94-22.42,27.82-22.39,45.7v1.44c0,1.35,0,2.7.26,4.1s.39,3.53.7,5.27c-.02.35-.02.7,0,1.05v.35c2.78,13.82,10.53,26.14,21.78,34.63,9.39,7.08,14.9,18.17,14.86,29.93v66.31c-.22,12.05-6.01,23.31-15.68,30.5-25.25,19.54-29.88,55.85-10.33,81.1,19.54,25.25,55.85,29.88,81.1,10.33,25.25-19.54,29.88-55.85,10.33-81.1-3.2-4.13-6.95-7.82-11.14-10.94-9.42-7.09-14.95-18.22-14.9-30.02v-66.26c.22-12.05,6.01-23.31,15.68-30.5,14.16-10.93,22.45-27.81,22.44-45.7v-1.39c0-1.35,0-2.7-.26-4.1s-.39-3.53-.7-5.27c.02-.33.02-.67,0-1v-.35c-2.79-13.82-10.54-26.13-21.78-34.63-9.42-7.09-14.95-18.22-14.9-30.02v-66.26c.22-12.05,6.01-23.31,15.68-30.5Z"/>
  </g>
  <g>
    <path d="M576.54,215.67c7.51-7.51,16.39-13.27,26.66-17.27,10.26-4,21.53-6.01,33.79-6.01,13.01,0,25.03,2.57,36.05,7.7,11.01,5.13,21.03,12.83,30.04,23.09l39.05-36.05c-12.52-15.27-27.98-26.85-46.38-34.73-18.4-7.89-38.99-11.83-61.77-11.83-20.53,0-39.43,3.32-56.7,9.95-17.27,6.64-32.36,16.09-45.25,28.35-12.9,12.27-22.91,26.66-30.04,43.18-7.13,16.52-10.7,34.68-10.7,54.45s3.57,37.93,10.7,54.45c7.13,16.52,17.09,30.92,29.85,43.18,12.77,12.27,27.85,21.72,45.25,28.35,17.4,6.63,36.24,9.95,56.51,9.95,23.03,0,43.75-4.01,62.14-12.01,18.4-8.01,33.85-19.65,46.38-34.92l-39.05-36.05c-9.01,10.51-19.03,18.34-30.04,23.47-11.02,5.13-23.03,7.7-36.05,7.7-12.27,0-23.53-2-33.79-6.01-10.27-4-19.15-9.76-26.66-17.27s-13.33-16.39-17.46-26.66c-4.13-10.26-6.2-21.65-6.2-34.17s2.06-23.9,6.2-34.17c4.13-10.26,9.95-19.15,17.46-26.66Z"/>
    <path d="M884.46,343.1l-56.71-137.2h-60.45l87.46,203.7-.72,1.69c-4.01,9.01-8.45,15.45-13.33,19.34-4.88,3.88-11.45,5.82-19.71,5.82-5.76,0-11.58-1.13-17.46-3.38-5.88-2.25-11.08-5.39-15.58-9.39l-21.4,41.68c6.51,5.76,14.89,10.26,25.16,13.52,10.26,3.25,20.65,4.88,31.17,4.88,12.26,0,23.47-1.88,33.61-5.63,10.14-3.76,19.4-10.27,27.79-19.53,8.38-9.26,15.83-22.03,22.34-38.3l91.25-214.41h-56.32l-57.07,137.2Z"/>
    <path d="M1134.53,364.36c-7.76,0-13.89-2.31-18.4-6.95-4.51-4.63-6.76-11.2-6.76-19.71v-86.74h50.32v-45.06h-50.32v-44.68h-58.58v44.68h-31.17v45.06h31.17v87.49c0,24.03,6.63,42.12,19.9,54.26,13.26,12.14,31.79,18.21,55.57,18.21,9.01,0,17.71-1.07,26.1-3.19,8.38-2.12,15.58-5.32,21.59-9.57l-15.77-41.3c-6.51,5.01-14.4,7.51-23.66,7.51Z"/>
    <path d="M1284.73,232.45v-26.54h-55.95v202.02h58.58v-95.38c0-19.27,4.94-33.48,14.83-42.62,9.89-9.14,22.84-13.71,38.86-13.71,2.25,0,4.38.07,6.38.19,2,.13,4.25.32,6.76.56v-54.07c-19.03,0-35.17,3.7-48.44,11.08-8.51,4.74-15.5,10.9-21.03,18.47Z"/>
    <rect x="1412.39" y="205.9" width="58.58" height="202.02"/>
    <path d="M1467.97,121.23c-6.76-5.88-15.53-8.82-26.28-8.82s-19.53,3.13-26.28,9.39c-6.76,6.26-10.14,14.02-10.14,23.28s3.38,17.03,10.14,23.28c6.76,6.26,15.52,9.39,26.28,9.39s19.84-3.19,26.47-9.57c6.63-6.38,9.95-14.46,9.95-24.22,0-9.26-3.38-16.83-10.14-22.72Z"/>
    <path d="M1597.33,257.72c7.89-4.51,16.46-6.76,25.72-6.76,10.02,0,19.03,2.25,27.04,6.76,8.01,4.51,14.33,10.89,18.96,19.15.66,1.17,1.25,2.39,1.82,3.63h61.37c-2.39-9.83-6.15-19-11.37-27.47-9.63-15.64-22.97-27.91-39.99-36.8-17.02-8.88-36.42-13.33-58.2-13.33s-39.8,4.45-55.57,13.33c-15.77,8.89-27.41,21.59-34.92,38.11l45.43,24.41c5.26-9.51,11.83-16.52,19.71-21.03Z"/>
    <path d="M1672.12,330.32c-.88,2.32-1.9,4.54-3.08,6.63-4.63,8.26-10.95,14.64-18.96,19.15-8.01,4.51-17.02,6.76-27.04,6.76-9.26,0-17.84-2.19-25.72-6.57-7.89-4.38-14.46-11.45-19.71-21.22l-45.43,24.78c7.51,16.28,19.15,28.85,34.92,37.74,15.77,8.89,34.3,13.33,55.57,13.33s41.18-4.44,58.2-13.33c17.03-8.88,30.36-21.22,39.99-36.99,5.71-9.34,9.68-19.45,12.01-30.29h-60.75Z"/>
  </g>
</svg>