<?xml version="1.0" encoding="utf-8"?>
<!-- Generator: Adobe Illustrator 25.2.0, SVG Export Plug-In . SVG Version: 6.00 Build 0)  -->
<svg version="1.1" id="Layer_1" xmlns="http://www.w3.org/2000/svg" xmlns:xlink="http://www.w3.org/1999/xlink" x="0px" y="0px"
	 viewBox="0 0 799.9 197.9" style="enable-background:new 0 0 799.9 197.9;" xml:space="preserve">
<style type="text/css">
	.st0{fill:#00CC66;}
</style>
<g>
	<g>
		<path d="M208.1,78.8c2.5-2.5,5.5-4.5,8.8-5.7c3.6-1.4,7.4-2,11.2-2c4.1,0,8.2,0.8,11.9,2.6c3.8,1.8,7.2,4.4,10,7.7l12.9-11.9
			c-4.1-5-9.4-9-15.4-11.5c-6.5-2.7-13.5-4-20.5-3.9c-6.4,0-12.7,1.2-18.6,3.4c-5.6,2.1-10.7,5.3-15,9.3c-4.3,4-7.6,8.9-10,14.3
			c-4.7,11.6-4.7,24.5,0,36.1c2.3,5.4,5.7,10.3,9.9,14.3c4.3,4.1,9.4,7.3,15,9.3c6,2.2,12.3,3.4,18.7,3.3c7,0.1,14-1.3,20.5-4
			c6-2.6,11.3-6.5,15.4-11.6L250,116.5c-2.7,3.3-6.1,5.9-10,7.8c-3.7,1.7-7.8,2.6-11.9,2.6c-3.8,0-7.6-0.6-11.2-2
			c-3.3-1.3-6.3-3.2-8.8-5.7c-2.5-2.5-4.5-5.5-5.8-8.8c-2.7-7.3-2.7-15.3,0-22.6C203.6,84.4,205.5,81.4,208.1,78.8z"/>
		<path d="M310.8,121.3l-18.8-45.6h-20l29,67.6l-0.2,0.6c-1,2.5-2.5,4.7-4.4,6.4c-1.9,1.4-4.2,2.1-6.5,1.9c-2,0-3.9-0.4-5.8-1.1
			c-1.9-0.7-3.7-1.8-5.2-3.1l-7.1,13.8c2.4,2.1,5.3,3.6,8.3,4.5c3.3,1,6.8,1.6,10.3,1.6c3.8,0.1,7.6-0.5,11.2-1.8
			c3.6-1.4,6.7-3.6,9.2-6.5c3.2-3.8,5.7-8.1,7.4-12.7l30.2-71.1h-18.7L310.8,121.3z"/>
		<path d="M414,78.9c-5.2-2.9-11-4.3-16.9-4.2c-5.2-0.1-10.3,1.2-14.8,3.7c-2,1.2-3.8,2.7-5.4,4.4V50.2h-19.4v92.4l18.5,0v-7.7
			c1.7,2,3.6,3.7,5.9,5c4.6,2.6,9.9,3.9,15.2,3.7c5.9,0.1,11.8-1.4,16.9-4.3c5-2.8,9.1-7,11.9-12c5.9-11.4,5.9-25,0-36.5
			C423.1,85.8,419,81.7,414,78.9z M408.5,119c-2.9,5.5-8.6,8.8-14.8,8.7c-3.1,0-6.1-0.7-8.7-2.2c-2.6-1.5-4.7-3.7-6.1-6.4
			c-3-6.3-3-13.6,0-19.8c1.4-2.6,3.5-4.8,6.1-6.4c2.7-1.5,5.7-2.3,8.7-2.2c6.1-0.2,11.9,3.2,14.8,8.6
			C411.6,105.4,411.6,112.7,408.5,119z"/>
		<path d="M461,84.4v-8.8h-18.5v67l19.4,0V111c0-6.4,1.6-11.1,4.9-14.1c3.5-3.1,8.2-4.8,12.9-4.5c0.7,0,1.4,0,2.1,0l2.2,0.2V74.6
			c-5.6-0.2-11.1,1.1-16.1,3.7C465.2,79.8,462.8,81.9,461,84.4z"/>
		<path d="M548.7,81.8c-5.6-4.8-13.6-7.2-23.8-7.2c-5.3,0-10.6,0.7-15.7,2.2c-4.7,1.2-9.2,3.2-13.2,6l7,13.6c2.6-2,5.6-3.6,8.8-4.5
			c3.4-1.1,6.9-1.7,10.5-1.7c5.2,0,9.1,1.2,11.6,3.5c2.6,2.5,4,6,3.8,9.7h-15.3c-5.6-0.2-11.2,0.7-16.6,2.6c-3.8,1.3-7,3.8-9.3,7
			c-3.9,6.4-3.9,14.4,0,20.8c2.1,3.2,5.1,5.7,8.6,7.3c4.2,1.9,8.8,2.8,13.4,2.7c5,0.2,10-1,14.5-3.4c2.5-1.4,4.5-3.5,6-5.8v8.2v0
			h18.2v-38.2C557.1,94.2,554.3,86.7,548.7,81.8z M532.2,128.2c-2.6,1.6-5.7,2.4-8.7,2.3c-2.8,0.2-5.7-0.6-8-2.2
			c-1.9-1.4-3-3.6-2.9-5.9c0-2.2,0.9-4.2,2.6-5.6c1.7-1.5,4.8-2.2,9.3-2.2h13.3v7C536.6,124.4,534.7,126.7,532.2,128.2z"/>
		<path d="M626.7,77.7c-4.4-2.2-9.3-3.2-14.2-3.1c-5.3-0.1-10.6,1.2-15.3,3.7c-2.6,1.4-4.9,3.2-6.9,5.4v-8.1h-18.5v67h19.4v-33.1
			c-0.1-3.5,0.6-7,2.1-10.2c1.2-2.5,3.2-4.6,5.7-5.9c2.6-1.3,5.4-2,8.3-1.9c3.7-0.2,7.4,1.2,10,3.9c2.4,2.6,3.6,6.6,3.6,11.9v35.4
			h19.4v-38.3c0.2-5.8-1-11.6-3.6-16.8C634.3,83.3,630.9,79.9,626.7,77.7z"/>
		<path d="M795.2,90.8c-3-5.1-7.3-9.2-12.5-11.9c-11.4-5.7-24.7-5.6-36,0.2c-5.3,2.8-9.7,7.1-12.8,12.2c-3.2,5.4-4.8,11.6-4.7,17.9
			c-0.1,6.2,1.5,12.4,4.7,17.7c3.2,5.3,7.9,9.5,13.4,12.3c6.2,3.1,13.1,4.6,20.1,4.5c5.5,0.1,10.9-0.8,16-2.7
			c4.4-1.7,8.4-4.5,11.6-8l-10.3-11.2c-2.1,2.1-4.6,3.7-7.4,4.9c-3,1.1-6.2,1.6-9.3,1.6c-3.6,0.1-7.1-0.7-10.4-2.2
			c-2.9-1.4-5.3-3.6-6.9-6.4c-0.9-1.5-1.5-3.2-1.9-4.9h50.7c0.1-0.8,0.1-1.7,0.2-2.7c0.1-1,0.1-1.8,0.1-2.6
			C800.1,102.9,798.5,96.4,795.2,90.8z M756.3,91.5c2.7-1.5,5.7-2.2,8.8-2.2c3-0.1,6.1,0.7,8.7,2.2c2.5,1.4,4.5,3.5,5.9,6
			c0.9,1.8,1.5,3.7,1.9,5.7h-33c0.3-2,0.9-3.9,1.8-5.7C751.8,95.1,753.8,92.9,756.3,91.5z"/>
		<path d="M698.5,117.6c-0.2,0.5-0.4,1-0.7,1.6c-1.4,2.7-3.6,4.9-6.2,6.4c-2.7,1.5-5.8,2.3-9,2.2c-3,0-5.9-0.7-8.5-2.2
			c-2.8-1.7-5.1-4.1-6.5-7l-15.1,8.2c2.4,5.3,6.5,9.7,11.6,12.5c5.7,3.1,12,4.6,18.4,4.4c6.7,0.1,13.3-1.4,19.3-4.4
			c5.5-2.8,10-7,13.3-12.3c1.7-2.9,3-6,3.8-9.3L698.5,117.6L698.5,117.6z"/>
		<path d="M674,92.8c2.6-1.5,5.5-2.3,8.5-2.2c3.1,0,6.2,0.7,9,2.2c2.6,1.5,4.8,3.7,6.2,6.4c0.3,0.5,0.5,1,0.7,1.6h20.2
			c-0.8-3.3-2-6.5-3.8-9.3c-3.2-5.2-7.8-9.4-13.3-12.2c-6-3.1-12.6-4.6-19.3-4.5C676,74.5,669.6,76,664,79
			c-5.1,2.9-9.2,7.3-11.6,12.7l15.1,8.1C668.9,96.9,671.2,94.5,674,92.8z"/>
	</g>
	<g>
		<path class="st0" d="M136.5,122.2c-3.4-2.5-5.3-6.5-5.3-10.7V87.8c0.1-4.3,2.1-8.3,5.6-10.9c9-7,10.7-20,3.7-29
			c-7-9-20-10.7-29-3.7c-9,7-10.7,20-3.7,29c1.1,1.5,2.5,2.8,4,3.9c3.4,2.5,5.3,6.5,5.3,10.7v23.7c-0.1,4.3-2.1,8.3-5.6,10.9
			c-9,7-10.7,20-3.7,29c7,9,20,10.7,29,3.7c9-7,10.7-20,3.7-29C139.3,124.6,138,123.3,136.5,122.2z"/>
		<path class="st0" d="M33.1,122.2L33.1,122.2c-3.4-2.5-5.4-6.5-5.4-10.7V87.8c0.1-4.3,2.1-8.3,5.6-10.9c9-7,10.7-19.9,3.8-29
			c-7-9-19.9-10.7-29-3.8S-2.7,64,4.3,73.1c1.2,1.5,2.5,2.9,4.1,4c3.4,2.5,5.3,6.5,5.3,10.7v23.7c-0.1,4.3-2.1,8.3-5.6,10.9
			c-9,7-10.7,20-3.7,29c7,9,20,10.7,29,3.7s10.7-20,3.7-29C35.9,124.6,34.6,123.3,33.1,122.2z"/>
		<path class="st0" d="M85.3,37c9-7,10.7-20,3.7-29c-7-9-20-10.7-29-3.7c-9,7-10.7,20-3.7,29c1.1,1.5,2.5,2.8,4,3.9
			c3.4,2.5,5.3,6.5,5.3,10.7v23.7c-0.1,4.3-2.1,8.3-5.6,10.9c-5.1,3.9-8,9.9-8,16.3c0,0,0,0.1,0,0.2c0,0.1,0,0.2,0,0.3
			c0,0.5,0,1,0.1,1.5c0.1,0.5,0.1,1.3,0.2,1.9c0,0.1,0,0.2,0,0.4c0,0,0,0,0,0.1c1,4.9,3.8,9.3,7.8,12.4c3.4,2.5,5.3,6.5,5.3,10.7
			V150c-0.1,4.3-2.1,8.3-5.6,10.9c-9,7-10.7,20-3.7,29c7,9,20,10.7,29,3.7c9-7,10.7-20,3.7-29c-1.1-1.5-2.5-2.8-4-3.9
			c-3.4-2.5-5.3-6.5-5.3-10.7v-23.7c0.1-4.3,2.1-8.3,5.6-10.9c5.1-3.9,8-9.9,8-16.3c0,0,0-0.1,0-0.2c0-0.1,0-0.2,0-0.3
			c0-0.5,0-1-0.1-1.5c-0.1-0.5-0.1-1.3-0.2-1.9c0-0.1,0-0.2,0-0.4c0,0,0-0.1,0-0.1c-1-4.9-3.8-9.3-7.8-12.4
			c-3.4-2.5-5.3-6.5-5.3-10.7V47.9C79.8,43.6,81.9,39.6,85.3,37z"/>
	</g>
</g>
</svg>
